<?xml version="1.0" encoding="utf-8"?>
<!-- Generator: Adobe Illustrator 27.5.0, SVG Export Plug-In . SVG Version: 6.00 Build 0)  -->
<svg version="1.1" id="Layer_1" xmlns="http://www.w3.org/2000/svg" xmlns:xlink="http://www.w3.org/1999/xlink" x="0px" y="0px"
	 viewBox="0 0 576 360" style="enable-background:new 0 0 576 360;" xml:space="preserve">
<style type="text/css">
	.st0{fill:#008555;}
</style>
<path class="st0" d="M213.7,196.7c-1.1,1.1-2.9,1.1-4,0l-6.6-6.6l0,4.6c0,1.8-1.2,2.8-2.8,2.8c-1.6,0-2.9-1.3-2.9-2.8V189
	c0-1.3,0.8-2.3,1.8-2.7c1.9-0.7,3.4-2.2,4.1-4.1c0.4-1,1.4-1.8,2.7-1.8h5.7c1.6,0,2.8,1.3,2.8,2.9c0,1.6-1,2.8-2.8,2.8l-4.6,0
	l6.6,6.6C214.8,193.8,214.8,195.6,213.7,196.7"/>
<path class="st0" d="M213.7,163c1.1,1.1,1.1,2.9,0,4l-6.6,6.6l4.6,0c1.8,0,2.8,1.2,2.8,2.8c0,1.6-1.3,2.9-2.8,2.9l-5.7,0
	c-1.3,0-2.3-0.8-2.7-1.8c-0.7-1.9-2.2-3.4-4.1-4.1c-1-0.4-1.8-1.4-1.8-2.7V165c0-1.6,1.3-2.8,2.9-2.8c1.6,0,2.8,1,2.8,2.8l0,4.6
	l6.6-6.6C210.8,161.8,212.6,161.9,213.7,163"/>
<path class="st0" d="M180,163c1.1-1.1,2.9-1.1,4,0l6.6,6.6l0-4.6c0-1.8,1.2-2.8,2.8-2.8c1.6,0,2.9,1.3,2.9,2.8v5.7
	c0,1.3-0.8,2.3-1.8,2.7c-1.9,0.7-3.4,2.2-4.1,4.1c-0.4,1-1.4,1.8-2.7,1.8H182c-1.6,0-2.8-1.3-2.8-2.9c0-1.6,1-2.8,2.8-2.8l4.6,0
	L180,167C178.9,165.9,178.9,164.1,180,163"/>
<path class="st0" d="M180,196.7c-1.1-1.1-1.1-2.9,0-4l6.6-6.6l-4.6,0c-1.8,0-2.8-1.2-2.8-2.8c0-1.6,1.3-2.9,2.8-2.9h5.7
	c1.3,0,2.3,0.8,2.7,1.8c0.7,1.9,2.2,3.4,4.1,4.1c1,0.4,1.8,1.4,1.8,2.7v5.7c0,1.6-1.3,2.8-2.9,2.8c-1.6,0-2.8-1-2.8-2.8l0-4.6
	l-6.6,6.6C182.9,197.8,181.1,197.8,180,196.7"/>
<path class="st0" d="M238.5,196.7c-11.3,0-14.9-7.5-14.9-15.5c0-10.2,5.4-17.4,16.2-17.4c2.3,0,4.7,0.3,6.8,0.9l-0.7,5.6
	c-2.1-0.6-4.3-1-6.5-1c-6,0-9,4.5-9,10.8c0,7,2.9,11,9.4,11c2,0,4.6-0.6,6.3-1.3l0.7,5.5C244.5,196.1,241.6,196.7,238.5,196.7"/>
<path class="st0" d="M252.2,172.5h6.1v23.8h-6.1V172.5z M255.2,170.5c-2,0-3.6-1.6-3.6-3.6c0-1.9,1.6-3.5,3.6-3.5
	c2,0,3.7,1.6,3.7,3.5C258.9,168.9,257.3,170.5,255.2,170.5"/>
<path class="st0" d="M273.6,196.7c-5.3,0-6.9-1.9-6.9-7.5v-12.1h-4.1v-4.7h4.1v-7.3l6.1-1.6v8.9h5.8v4.7h-5.8v10.4
	c0,3.1,0.7,3.9,2.8,3.9c1,0,2.1-0.1,3-0.4v4.9C277,196.5,275.3,196.7,273.6,196.7"/>
<path class="st0" d="M284.2,172.5h6.1v23.8h-6.1V172.5z M287.3,170.5c-2,0-3.6-1.6-3.6-3.6c0-1.9,1.6-3.5,3.6-3.5
	c2,0,3.7,1.6,3.7,3.5C291,168.9,289.3,170.5,287.3,170.5"/>
<path class="st0" d="M295.8,196.3v-4.4l9.6-14.1c-0.9,0.1-2.8,0.1-5.1,0.1h-4.2v-5.5h16.6v4.4l-9.4,13.9c1,0,3.6,0,5.4,0h4.2v5.6
	H295.8z"/>
<path class="st0" d="M327.8,176.5c-2.5,0-4.3,1.9-4.6,4.7h8.8C332,178.2,330.3,176.5,327.8,176.5 M337.7,185.4H323
	c0,4.4,2.2,6.6,6.6,6.6c2.3,0,4.9-0.5,6.9-1.5l0.6,4.7c-2.5,1-5.5,1.5-8.5,1.5c-7.6,0-11.8-3.8-11.8-12.1c0-7.3,4-12.6,11.1-12.6
	c6.9,0,10,4.7,10,10.6C337.9,183.4,337.9,184.4,337.7,185.4"/>
<path class="st0" d="M357.6,196.3v-15.2c0-2.5-0.7-4-2.9-4c-3.1,0-5.5,3.5-5.5,7.7v11.5h-6.1v-23.8h5.8c0,1.1-0.1,3-0.3,4.2l0,0
	c1.4-2.8,4.2-4.8,8.1-4.8c5.4,0,7.1,3.4,7.1,7.6v16.7H357.6z"/>
<path class="st0" d="M374.5,196.7c-1.7,0-3.4-0.2-5-0.4l0.1-5c1.5,0.4,3.3,0.7,5.1,0.7c2.3,0,3.9-1,3.9-2.5c0-4.2-9.6-1.8-9.6-9.9
	c0-4.2,3.4-7.6,10.1-7.6c1.4,0,2.9,0.2,4.4,0.4l-0.2,4.8c-1.3-0.4-2.9-0.6-4.4-0.6c-2.4,0-3.5,1-3.5,2.4c0,3.9,9.8,2.2,9.8,9.9
	C385.1,193.6,381,196.7,374.5,196.7"/>
<g>
	<path class="st0" d="M392.5,172.4c0.4,0.2,0.7,0.6,0.9,1c0.2,0.4,0.3,0.8,0.3,1.3s-0.1,0.9-0.3,1.3c-0.2,0.4-0.5,0.7-0.9,1
		c-0.4,0.2-0.8,0.3-1.3,0.3c-0.5,0-0.9-0.1-1.3-0.3c-0.4-0.2-0.7-0.5-0.9-1c-0.2-0.4-0.3-0.8-0.3-1.3s0.1-0.9,0.3-1.3
		c0.2-0.4,0.5-0.7,0.9-1s0.8-0.4,1.3-0.4C391.6,172,392.1,172.2,392.5,172.4z M392.2,176.5c0.3-0.2,0.6-0.4,0.7-0.8s0.3-0.7,0.3-1.1
		s-0.1-0.7-0.3-1.1s-0.4-0.6-0.7-0.8c-0.3-0.2-0.7-0.3-1.1-0.3c-0.4,0-0.7,0.1-1,0.3c-0.3,0.2-0.6,0.5-0.7,0.8
		c-0.2,0.3-0.3,0.7-0.3,1.1s0.1,0.7,0.3,1.1c0.2,0.3,0.4,0.6,0.7,0.8c0.3,0.2,0.7,0.3,1,0.3C391.5,176.8,391.9,176.7,392.2,176.5z
		 M392.1,174.6c-0.1,0.1-0.3,0.2-0.5,0.3l0.8,1.2h-0.7L391,175h-0.2v1.1h-0.6v-2.8h0.8c0.8,0,1.3,0.3,1.3,0.9
		C392.2,174.3,392.2,174.4,392.1,174.6z M390.8,174.5h0.3c0.4,0,0.6-0.1,0.6-0.4c0-0.1,0-0.2-0.1-0.3c-0.1-0.1-0.2-0.1-0.4-0.1h-0.3
		V174.5z"/>
</g>
</svg>
