<svg id="Layer_1" data-name="Layer 1" xmlns="http://www.w3.org/2000/svg" viewBox="0 0 362.36258 43.13486"><title>HeinzLogoFull</title><path d="M13.6929,7.05679c0-.251.14347-1.61464-.3588-1.65055H7.48548c-2.22447,0-2.29634.53818-2.94208,2.51162-.10777.3588-.14368.82538-.61.82538-.21533,0-.3588-.25124-.3588-.43067L3.96926,4.8321c.036-.4304,0-1.3993.64579-1.3993,2.79877,0,5.56142.14347,10.19016.14347,6.49441,0,9.79525-.14347,10.51285-.14347.8254,0,1.0048.21533,1.04073,1.0405l.1794,2.87068c.03568.35881.07161.78922-.39474.78922-1.32767,0,.60981-2.727-3.04983-2.727H17.96258c-1.61459,0-1.43521-.14347-1.43521,1.75832v18.299c0,3.01415,2.90638,1.82971,2.90638,2.94229,0,.10756.03591.43067-.3229.43067-.86108,0-1.86588-.14373-2.90633-.14373a48.187,48.187,0,0,0-4.91573.14373c-.32284,0-.43041-.108-.43041-.46684,0-.86081,2.83452-.502,2.83452-2.65483Z" transform="translate(-3.57455 -3.4328)"/><path d="M41.65048,26.50428c0,1.90153,2.79856,1.36335,2.79856,2.00909,0,.17938-.10751.32311-.50227.32311-.96859,0-2.081-.14373-3.19327-.14373-1.14827,0-2.40411.14373-3.48052.14373-.21533,0-.3588-.108-.3588-.28746,0-.93268,2.11691-.10751,2.11691-1.82967v-5.0951c0-.46637-.17943-.71761-.50227-.71761H30.5276c-.32313,0-.50253.25124-.50253.71761v4.88c0,1.90153,2.7988,1.36335,2.7988,2.00909,0,.17938-.10777.32311-.50227.32311-.96885,0-2.08119-.14373-3.19354-.14373-1.148,0-2.40383.14373-3.48024.14373-.21533,0-.3588-.108-.3588-.28746,0-.93268,2.11689-.10751,2.11689-1.82967V14.87885c0-1.90184-2.76289-1.36361-2.76289-2.00935,0-.17943.10779-.3229.50227-.32316.96887,0,2.08121.14373,3.19355.14373,1.148,0,2.40383-.14373,3.48022-.14347.21533,0,.3588.10756.3588.28694,0,.93294-2.1528.10756-2.1528,1.83v4.26967c0,.46663.1794.71761.50253.71761h8.00122c.32284,0,.50227-.251.50227-.71761V14.87885c0-1.90184-2.76265-1.36361-2.76265-2.00935,0-.17943.10756-.3229.50227-.32316.9689,0,2.081.14373,3.19332.14373,1.14827,0,2.40406-.14373,3.48047-.14347.21533,0,.3588.10756.3588.28694,0,.93294-2.15282.10756-2.15282,1.83Z" transform="translate(-3.57455 -3.4328)"/><path d="M51.23013,26.18112c0,1.07641.82517,1.43521,2.79856,1.43521,4.87977,0,5.66925-2.65535,6.13561-2.65535.17938,0,.25124.17943.25124.395a4.57594,4.57594,0,0,1-1.47112,2.79855c-.64579.53818-1.184.68191-2.76265.68191-1.3277,0-2.69126-.14373-4.41341-.14373-1.68651,0-3.55212.14373-4.77226.14373-.3588,0-.68165-.108-.68165-.32311,0-.78947,2.29629,0,2.29629-2.26038V15.16579c0-2.081-2.40385-1.50708-2.40385-2.26038,0-.25124.21533-.3588.57414-.35906,1.47091,0,3.76741.14373,5.99188.14373,2.51183,0,5.66919-.14373,6.09965-.14347a.38443.38443,0,0,1,.359.3588c0,.43041-.03591,1.00454-.03591,3.12146,0,.43067-.14347.57414-.39476.57414-.28715,0-.39471-.6101-.46657-1.0405-.21507-1.29174-1.54272-1.794-4.26968-1.794-1.86567,0-2.83452,0-2.83452,1.0405V19.6508h3.30109c2.58323,0,1.93748-2.08095,2.72669-2.08095a.37648.37648,0,0,1,.39476.39476c0,.43041-.10756,1.148-.10756,1.90153,0,1.11236.0716,2.11691.0716,3.04985,0,.39471-.14347.53792-.46631.53792-.6817,0-.07187-2.47541-2.54758-2.47541h-3.3727Z" transform="translate(-3.57455 -3.4328)"/><path d="M73.72643,6.51856C73.69073,3.89943,70.605,4.617,70.605,3.82756c0-.3229.28694-.39476.57414-.39476,1.32744,0,2.61918.14347,3.94683.14347,1.11237,0,2.22442-.14347,3.33679-.14347.61,0,.68165.21533.68165.3588,0,.71761-2.58322.036-2.58322,2.727v7.7502c0,.50227,0,.64574.53823.64574H90.23163c.3588,0,.28694-.897.28694-1.04045V6.51856c0-2.47566-2.691-1.86588-2.691-2.691,0-.21533.07186-.39476.6101-.39476,1.18392,0,3.0498.14347,3.7315.14347,1.32765,0,1.86588-.14347,2.58349-.14347.93294,0,1.00454.3588,1.00454.57414,0,.64574-2.40411.036-2.40411,2.51162V25.53538c0,2.61918,3.26519,1.97344,3.26519,2.87042,0,.10756-.14347.43067-.3945.43067-.96885,0-2.08121-.14373-3.3727-.14373-2.29655,0-3.30109.14373-3.983.14373-.3229,0-.86108.10756-.86108-.46684,0-.86081,2.51162-.3588,2.51162-2.61918V17.13918c0-.57414.14347-.897-.28694-.897H76.99156c-.43041,0-.43041.21533-.43041.61v8.93443c0,2.43976,3.40865,1.65028,3.40865,2.76234,0,.17943-.25129.28746-.57414.28746-.46637,0-3.08576-.14373-4.98734-.14373a18.81258,18.81258,0,0,0-3.08576.14373c-.2872,0-.39471-.17938-.39471-.53818,0-1.04076,2.79856.14321,2.79856-3.40866Z" transform="translate(-3.57455 -3.4328)"/><path d="M103.292,26.18112c0,1.07641.82512,1.43521,2.79856,1.43521,4.87977,0,5.66925-2.65535,6.13556-2.65535.17943,0,.25129.17943.25129.395a4.5758,4.5758,0,0,1-1.47117,2.79855c-.64574.53818-1.18392.68191-2.7626.68191-1.3277,0-2.69131-.14373-4.41346-.14373-1.68645,0-3.55207.14373-4.77221.14373-.3588,0-.6817-.108-.6817-.32311,0-.78947,2.29629,0,2.29629-2.26038V15.16579c0-2.081-2.4038-1.50708-2.4038-2.26038,0-.25124.21534-.3588.57414-.35906,1.47086,0,3.76741.14373,5.99183.14373,2.51162,0,5.66925-.14373,6.09965-.14347a.38422.38422,0,0,1,.3588.3588c0,.43041-.03565,1.00454-.03565,3.12146,0,.43067-.14373.57414-.39476.57414-.2872,0-.39471-.6101-.46657-1.0405-.21507-1.29174-1.54277-1.794-4.26973-1.794-1.86562,0-2.83447,0-2.83447,1.0405V19.6508h3.30109c2.58323,0,1.93749-2.08095,2.72669-2.08095a.37647.37647,0,0,1,.39471.39476c0,.43041-.10751,1.148-.10751,1.90153,0,1.11236.0716,2.11691.0716,3.04985,0,.39471-.14347.53792-.46637.53792-.68165,0-.07187-2.47541-2.54753-2.47541H103.292Z" transform="translate(-3.57455 -3.4328)"/><path d="M116.81824,14.87885c0-1.90184-2.76291-1.36361-2.76291-2.00935,0-.17943.10777-.3229.50227-.32316.9689,0,2.08121.14373,3.19353.14373,1.14807,0,2.40385-.14373,3.48026-.14347.21533,0,.3588.10756.3588.28694,0,.93294-2.15282.10756-2.15282,1.83V26.50428c0,1.90153,2.79882,1.36335,2.79882,2.00909,0,.17938-.10777.32311-.50227.32311-.96885,0-2.08121-.14373-3.19353-.14373-1.14807,0-2.40385.14373-3.48026.14373-.21533,0-.3588-.108-.3588-.28746,0-.93268,2.11691-.10751,2.11691-1.82967Z" transform="translate(-3.57455 -3.4328)"/><path d="M139.85345,15.99091c0-3.1214-3.22922-2.22442-3.22922-3.1214,0-.21533.287-.3229.53823-.32316.82517,0,2.00935.14373,3.01389.14373,1.32765,0,2.26059-.14373,2.9782-.14347a.34893.34893,0,0,1,.3945.3588c0,.71761-2.36789,0-2.36789,2.79856V28.36964c0,.43067-.14373.61-.6101.61-.28694,0-.53818-.1432-1.14822-.78947l-11.05108-11.948-.21533.03591v9.72364c0,2.58349,3.04985,1.50708,3.04985,2.58349,0,.21507-.25124.25124-.64574.25124-1.00481,0-2.11712-.14373-3.04985-.14373-.96885,0-1.93769.14373-2.79877.14373-.287,0-.50232-.108-.50232-.32311,0-1.00454,2.47572,0,2.47572-3.76746V15.704c0-2.87042-3.12167-2.04526-3.12167-2.90633,0-.14347.17938-.251.57414-.25129.43062,0,.93294.14373,1.82992.14373.75351,0,1.25584-.14373,1.90179-.14347a1.48159,1.48159,0,0,1,1.184.53823l10.54876,11.51735.25124-.14321Z" transform="translate(-3.57455 -3.4328)"/><path d="M158.43913,12.69008c.28694,0,.46631.0716.46631.251a3.66216,3.66216,0,0,1-.68165,1.25578l-7.60647,11.41036c-.53823.78895-.93294,1.29148-.93294,1.61464,0,.43015.21533.46631.50227.46631h2.22468c5.52552,0,6.02779-2.26033,6.63783-2.26033a.43058.43058,0,0,1,.3945.43015c0,.2156-.251.53818-1.07641,1.54324-1.0405,1.32718-1.39931,1.43521-2.045,1.43521-2.9782,0-4.55688-.14373-6.17151-.14373-1.43521,0-2.90633.14373-4.34155.14373-.21533,0-.3588-.03617-.3588-.32311,0-.14373.10777-.28694.32284-.57388l7.82206-11.66139a8.97817,8.97817,0,0,0,1.25584-2.33219c0-.17943-.17943-.21533-.57414-.21533h-4.37724c-3.08576,0-2.69131,2.65509-3.51643,2.65509-.17943,0-.3588-.17943-.3588-.46637,0-.32284.32284-2.00935.46631-3.01389.07187-.2872.32316-.3588.78947-.3588.43067,0,3.76746.14347,6.028.14347Z" transform="translate(-3.57455 -3.4328)"/><path d="M175.37422,13.874c0,1.21988-.07187,1.21988,1.36335,1.21988h3.875c3.73176,0,2.76286-2.87042,3.62394-2.87042.2872,0,.39476.39471.39476.68191,0,1.25584-.0716,2.47572-.0716,3.62373,0,.93294.0716,1.86588.0716,2.83473,0,.3229-.14347.46637-.39476.46637-1.11232,0,.10782-3.15737-2.90633-3.15737H176.02c-.75356,0-.64574.60979-.64574,1.148v6.60192c0,2.11712-.2872,2.97846,2.72669,2.97846,8.2889,0,9.508-3.69606,9.97489-3.69606.25077,0,.28746.3588.28746.43067a5.67263,5.67263,0,0,1-1.794,3.48047c-1.14854,1.29148-1.938,1.22014-3.51668,1.22014-2.727,0-5.45392-.21559-8.18087-.14373-1.43521.0357-2.942.14373-4.37724.14373-.32316,0-.53823-.07187-.53823-.3588.0716-.43067.43041-.3588,1.57868-.93321.93294-.43066,1.00454-1.43521,1.00454-3.12166V8.06159c0-1.61463,0-3.337-1.93748-3.624-.28694-.07186-1.07641-.14373-1.07641-.57414,0-.28719.21533-.43066,1.25583-.43066,6.7813,0,8.64718.14347,10.15426.14347.71761,0,4.0187-.14347,5.13107-.14347.28642,0,.3588.3588.3588.78947,0,3.98279-.50253,4.26973-.71787,4.26973-.86108,0-.28694-1.72215-.86108-2.54758-.93294-1.21988-4.66444-1.00454-6.09965-1.00454-3.44457,0-3.3727-.14347-3.3727,2.26038Z" transform="translate(-3.57455 -3.4328)"/><path d="M205.62145,15.99091c0-3.1214-3.22923-2.22442-3.22923-3.1214,0-.21533.28647-.3229.53823-.32316.82465,0,2.00909.14373,3.01415.14373,1.32713,0,2.25981-.14373,2.97741-.14347a.34866.34866,0,0,1,.3945.3588c0,.71761-2.36789,0-2.36789,2.79856V28.36964c0,.43067-.14373.61-.60957.61-.28746,0-.53818-.1432-1.14874-.78947l-11.05057-11.948-.21606.03591v9.72364c0,2.58349,3.0498,1.50708,3.0498,2.58349,0,.21507-.25077.25124-.64522.25124-1.00507,0-2.11717-.14373-3.04985-.14373-.96937,0-1.93775.14373-2.799.14373-.28647,0-.50253-.108-.50253-.32311,0-1.00454,2.47592,0,2.47592-3.76746V15.704c0-2.87042-3.1212-2.04526-3.1212-2.90633,0-.14347.17943-.251.57388-.25129.4302,0,.93274.14373,1.82971.14373.7533,0,1.25584-.14373,1.902-.14347a1.47912,1.47912,0,0,1,1.18345.53823l10.549,11.51735.25176-.14321Z" transform="translate(-3.57455 -3.4328)"/><path d="M213.83724,15.417c0-2.40406-2.40359-1.75832-2.40359-2.54753,0-.25129.21513-.3229.57393-.3229.25072,0,.57388.0357,1.005.0716.3945.036.897.07186,1.39852.07186.897,0,1.8664-.07186,2.87042-.14347,1.04076-.07187,2.11717-.14373,3.15788-.14373,6.81726,0,8.647,5.27454,8.647,7.96553,0,5.59765-4.41267,8.46807-8.89774,8.46807-1.39951,0-2.83473-.14373-4.23424-.14373-1.61464,0-3.1212.14373-3.69612.14373-.17938,0-.28642-.07187-.28642-.17938,0-.64626,1.86536-.32316,1.86536-2.58349Zm2.61965,11.66113c0,.82512,1.04077.96885,3.01415.96885,5.05894,0,6.99669-2.58349,6.99669-6.67379,0-3.588-1.794-8.18087-7.31979-8.18087-1.75831,0-2.691.17943-2.691,1.11237Z" transform="translate(-3.57455 -3.4328)"/><path d="M239.99422,28.97968c-5.30971,0-9.07712-2.97794-9.07712-7.96527,0-5.167,3.55134-8.61154,8.97008-8.61154,5.81219,0,8.93339,3.51643,8.93339,7.92963A8.57156,8.57156,0,0,1,239.99422,28.97968Zm-.25077-15.78734c-3.62373,0-5.99262,2.79857-5.99262,7.35549,0,4.66444,2.76338,7.4273,6.45846,7.4273,3.19353,0,5.77754-2.29655,5.77754-7.1401C245.98683,15.8834,243.18775,13.19234,239.74345,13.19234Z" transform="translate(-3.57455 -3.4328)"/><path d="M252.05485,15.05823c-.82459-2.00935-2.22416-1.75832-2.22416-2.26059,0-.14347.17943-.251.39451-.25129.71761,0,2.04473.14373,2.87042.14373s1.61458-.14373,2.47592-.14347c.17943,0,.25077.251.25077.3945,0,.3588-1.32718.32311-1.32718,1.22014,0,.64574.57388,2.00909,3.51564,9.14945.57492,1.36334.64626,1.72215.79,1.72215s.17943-.17938.60957-1.00454l1.65029-3.48047c.39549-.82517.43119-1.00455.43119-1.29174a5.47635,5.47635,0,0,0-.64626-1.90158l-1.07641-2.40406c-.82464-2.081-2.18852-1.68624-2.18852-2.11691a.28023.28023,0,0,1,.28746-.2872c.86029,0,1.90106.14373,2.87042.14373.93268,0,1.97344-.14373,2.51163-.14347a.38469.38469,0,0,1,.43014.3945c0,.57414-1.50656.07187-1.50656,1.18418,0,.53823.25078,1.148,3.37191,8.57537.897,2.189.93372,2.43976,1.07641,2.43976.10809,0,.17943-.14321.57492-1.04024,1.50656-3.40886,3.48-8.0374,3.48-9.25728,0-1.61459-1.75837-1.11232-1.75837-1.794,0-.25124.07239-.50227.46689-.50253.46684,0,1.57894.14373,2.40354.14373.7543,0,1.72267-.14373,2.04583-.14347.25072,0,.43015.10756.43015.3229,0,.64574-1.11211,0-2.33225,2.7626l-4.84382,11.19476c-.64626,1.54278-.71761,2.15282-1.11211,2.15282-.3588,0-.39445-.28693-1.5076-2.97794-2.15282-5.20267-2.15282-5.31044-2.2955-5.31044-.14373,0-.17938.07186-.93372,1.72241-1.004,2.11713-2.25981,4.59258-2.798,6.17152a.49709.49709,0,0,1-.46684.39444c-.25077,0-.3588-.32258-.682-1.0764Z" transform="translate(-3.57455 -3.4328)"/><path d="M286.06881,28.22643a.5399.5399,0,0,1-.46584.32258c-.17943,0-.32316-.10751-.46689-.43015L280.00481,17.247h-.21507c-.03569,1.18392-.21507,3.01389-.21507,7.60647,0,2.15282.25077,2.65535,1.47091,3.15736.43114.17938.897.14372.897.5744,0,.17938-.17938.25124-.43015.25124-.86134,0-1.72267-.14373-2.584-.14373-1.07642,0-2.15282.14373-2.76239.14373a.25455.25455,0,0,1-.28741-.25124c0-.5744,1.8307-.32316,2.11712-1.90158a101.15233,101.15233,0,0,0,.57388-10.58493c0-3.15762-2.87042-2.29629-2.87042-3.15762a.37512.37512,0,0,1,.39549-.39476c.64527,0,1.11211.14373,1.75733.14373.86134,0,1.54324-.14373,2.08148-.14347.28746,0,.46684.21507.60957.50227l5.74184,11.7689h.28642l5.84893-11.30253c.21507-.39476.39445-.82517.64522-.82517h1.5076a12.97261,12.97261,0,0,0,1.36283-.07186c.3588-.03591.57492-.0716.68191-.0716a.393.393,0,0,1,.35881.3945c0,.78947-2.43924,0-2.43924,2.691,0,2.69131.28642,7.212.28642,10.29778,0,2.58349,2.54731,1.86588,2.54731,2.65535,0,.14321-.07134.25124-.3588.25124-.82465,0-2.08043-.14373-3.30057-.14373-1.07641,0-1.93775.14373-2.61965.14373-.3945,0-.64527-.03617-.64527-.28746,0-.71761,1.75837-.39445,1.75837-2.33219V16.78037l-.21612.07187Z" transform="translate(-3.57455 -3.4328)"/><path d="M304.224,26.18112c0,1.07641.82564,1.43521,2.799,1.43521,4.87956,0,5.66851-2.65535,6.13534-2.65535.17943,0,.25077.17943.25077.395a4.57369,4.57369,0,0,1-1.4709,2.79855c-.64627.53818-1.18445.68191-2.76239.68191-1.32818,0-2.691-.14373-4.41367-.14373-1.686,0-3.55234.14373-4.77248.14373-.3588,0-.68092-.108-.68092-.32311,0-.78947,2.2955,0,2.2955-2.26038V15.16579c0-2.081-2.40354-1.50708-2.40354-2.26038,0-.25124.21507-.3588.57388-.35906,1.47086,0,3.76741.14373,5.99261.14373,2.51162,0,5.66846-.14373,6.09965-.14347a.38444.38444,0,0,1,.3588.3588c0,.43041-.03669,1.00454-.03669,3.12146,0,.43067-.14273.57414-.3945.57414-.28642,0-.39445-.6101-.46584-1.0405-.21606-1.29174-1.54324-1.794-4.26995-1.794-1.8664,0-2.83473,0-2.83473,1.0405V19.6508h3.30058c2.584,0,1.93774-2.08095,2.72768-2.08095a.37656.37656,0,0,1,.3945.39476c0,.43041-.108,1.148-.108,1.90153,0,1.11236.07234,2.11691.07234,3.04985,0,.39471-.14369.53792-.46684.53792-.68191,0-.07134-2.47541-2.54727-2.47541h-3.373Z" transform="translate(-3.57455 -3.4328)"/><path d="M331.06189,15.99091c0-3.1214-3.22923-2.22442-3.22923-3.1214,0-.21533.28746-.3229.53818-.32316.82569,0,2.00915.14373,3.01415.14373,1.32718,0,2.2609-.14373,2.97851-.14347a.34915.34915,0,0,1,.39445.3588c0,.71761-2.36789,0-2.36789,2.79856V28.36964c0,.43067-.14373.61-.61057.61-.28642,0-.53823-.1432-1.14775-.78947l-11.05155-11.948-.21507.03591v9.72364c0,2.58349,3.0498,1.50708,3.0498,2.58349,0,.21507-.25072.25124-.6462.25124-1.00408,0-2.11614-.14373-3.04986-.14373-.96838,0-1.9367.14373-2.798.14373-.28746,0-.50253-.108-.50253-.32311,0-1.00454,2.47592,0,2.47592-3.76746V15.704c0-2.87042-3.12219-2.04526-3.12219-2.90633,0-.14347.17943-.251.57492-.25129.43015,0,.93268.14373,1.82966.14373.7533,0,1.25584-.14373,1.90106-.14347a1.48245,1.48245,0,0,1,1.18444.53823l10.549,11.51735.25077-.14321Z" transform="translate(-3.57455 -3.4328)"/><path d="M343.40493,15.34516c0-.78947-.32317-1.32764-1.07642-1.32764H339.4214c-2.54732,0-1.90106,3.19353-2.83374,3.19353a.38024.38024,0,0,1-.43119-.43067c0-.28693.61057-3.08575.61057-3.875,0-.21533.21507-.2872.46584-.2872.64626,0,2.51162.21533,4.66444.21533h4.77247c.93274,0,2.00914-.03591,3.04985-.07187,1.00507-.03565,1.93775-.14347,2.47592-.14347.32316,0,.46584.10782.46584.43067s.39549,2.942.39549,3.19332-.108.39471-.46684.39471c-.64626,0-.50253-2.61939-2.83472-2.61939H347.1c-.86034,0-1.07641.2872-1.07641,1.00481V26.03739c0,2.40411,3.01416,1.47143,3.01416,2.44028,0,.25077-.17944.3588-.71761.3588-1.04077,0-2.04479-.14373-3.44436-.14373-1.68593,0-2.61965.14373-3.8031.14373-.28741,0-.43114-.14373-.43114-.3588,0-.86134,2.76339,0,2.76339-2.29655Z" transform="translate(-3.57455 -3.4328)"/><path d="M363.03106,12.8695a6.73826,6.73826,0,0,0,1.57889.46631c.82465,0,.53823-.50227.86134-.50227.14274,0,.21507.14347.21507.39476,0,.50227-.07233,1.39925-.07233,2.15282,0,.60978.07233,1.90153.07233,2.43976a.3461.3461,0,0,1-.3588.3947c-.21507,0-.3588-.4304-.50247-.86107-.43021-1.25578-1.36388-3.94683-4.48507-3.94683-1.86535,0-3.22923.96864-3.22923,2.54757,0,3.73151,8.82635,2.61914,8.82635,8.00118,0,2.76291-2.25986,5.02324-5.95592,5.02324a8.52945,8.52945,0,0,1-4.26994-.93267c-.50253-.25124-.53823-.395-.60957-1.04071-.108-1.11211-.68191-2.94229-.68191-3.6599a.45621.45621,0,0,1,.43015-.50227c.32311,0,.46684.21533.68191.96859.43119,1.47143,2.18852,4.16243,4.9162,4.16243,1.93675,0,3.48-1.00454,3.48-2.94229,0-4.01844-8.82635-2.83447-8.82635-8.00118,0-2.29655,1.86536-4.62879,5.23832-4.62879A8.4001,8.4001,0,0,1,363.03106,12.8695Z" transform="translate(-3.57455 -3.4328)"/><path d="M27.2344,38.24332c-.01325-.95256-1.13527-.69161-1.13527-.97855,0-.11721.10448-.1432.20871-.14373.48291,0,.95256.0525,1.43521.0525.40467,0,.80909-.0525,1.21351-.052.2217,0,.248.078.248.13047,0,.26095-.93957.01273-.93957.99128v2.81845c0,.18245,0,.235.19571.235h4.77556c.13047,0,.10422-.32618.10422-.37869V38.24332c0-.90006-.97855-.67835-.97855-.97855,0-.078.02625-.1432.222-.14373.43041,0,1.109.0525,1.357.0525.48265,0,.67836-.0525.93931-.052.33918,0,.36543.13047.36543.20844,0,.235-.87433.01326-.87433.91332v6.91511c0,.95257,1.18726.71761,1.18726,1.04379,0,.03925-.052.15647-.14347.15647-.35218,0-.75659-.052-1.22651-.052-.83482,0-1.20026.052-1.44821.052-.11748,0-.31319.03924-.31319-.1692,0-.31346.91332-.13047.91332-.95256V42.10556c0-.209.05224-.32618-.10422-.32618H28.42167c-.15673,0-.15673.078-.15673.2217v3.24859c0,.88732,1.2395.60039,1.2395,1.00507,0,.06524-.09123.104-.20871.104-.16946,0-1.122-.052-1.81364-.052a6.87819,6.87819,0,0,0-1.122.052c-.10423,0-.14347-.06524-.14347-.19571,0-.37817,1.0178.0525,1.0178-1.2395Z" transform="translate(-3.57455 -3.4328)"/><path d="M39.65543,46.4112c-1.93086,0-3.30083-1.083-3.30083-2.89642a3.01491,3.01491,0,0,1,3.26185-3.13137c2.11357,0,3.24885,1.27823,3.24885,2.88315A3.11716,3.11716,0,0,1,39.65543,46.4112Zm-.09123-5.74085c-1.31773,0-2.17881,1.0178-2.17881,2.67471a2.3968,2.3968,0,0,0,2.34853,2.7007c1.161,0,2.10058-.83482,2.10058-2.59622C41.8345,41.6489,40.8167,40.67035,39.5642,40.67035Z" transform="translate(-3.57455 -3.4328)"/><path d="M44.19879,41.34871c-.29993-.73086-.80883-.63911-.80883-.82209,0-.052.06524-.09122.14347-.09122.26095,0,.74386.052,1.04379.052.30019,0,.58713-.052.90032-.052.06524,0,.09123.09122.09123.14373,0,.13047-.48265.11722-.48265.4434a19.69252,19.69252,0,0,0,1.27875,3.32708c.20871.49591.2347.62638.28694.62638s.06524-.06524.2217-.36543l.60039-1.26549c.14347-.30019.15646-.36543.15646-.46992a1.992,1.992,0,0,0-.235-.69161l-.39142-.87408c-.29993-.75685-.79584-.61312-.79584-.76958a.102.102,0,0,1,.10448-.10448c.31319,0,.69135.052,1.04379.052.33918,0,.71761-.052.91332-.052a.14.14,0,0,1,.15646.14373c0,.20844-.54789.026-.54789.43015a16.729,16.729,0,0,0,1.22651,3.11864c.32618.79558.33918.88733.39142.88733.039,0,.06524-.05251.20871-.37869a17.851,17.851,0,0,0,1.26549-3.36633c0-.58713-.63937-.40416-.63937-.65237,0-.09123.02625-.18245.16972-.18245.16972,0,.57414.052.87433.052.27394,0,.62612-.052.7436-.052.09123,0,.15646.03925.15646.11722,0,.235-.40442,0-.84808,1.00507l-1.7614,4.07068c-.2347.56114-.26095.78284-.40442.78284-.13047,0-.14347-.10448-.54789-1.083-.78284-1.89187-.78284-1.93112-.83508-1.93112s-.06524.026-.33918.62638c-.36543.76959-.82209,1.67017-1.0178,2.244a.18045.18045,0,0,1-.16972.14373c-.09123,0-.13047-.11774-.24769-.39142Z" transform="translate(-3.57455 -3.4328)"/><path d="M53.85312,44.23239c-.14347,0-.235.09123-.33918.28694-.36543.69162-.43067.88733-.43067,1.0178,0,.32618.27394.49538.69162.53463.2217.01326.32618.03925.32618.15647,0,.07849-.05224.13047-.18272.13047-.27394,0-.63937-.052-1.096-.052-.36543,0-.86108.052-1.05679.052-.07823,0-.11748-.01273-.11748-.09123,0-.18245.5219-.11721.95256-.97855,1.2395-2.479,2.244-4.10993,2.54424-4.63182.10422-.18245.15646-.27368.2217-.27368.09123,0,.10448.09123.15646.19571.62638,1.2395,1.61793,3.52279,2.19207,4.87951.27394.65237,1.04379.54788,1.04379.75685,0,.10448-.10448.14321-.31319.14321-.24769,0-.63911-.052-.99155-.052-.43041,0-.88707.052-1.29174.052-.10422,0-.14347-.03872-.14347-.13047,0-.24769.67836-.09123.67836-.69109,0-.16972-.06524-.3527-.39142-1.00507-.10422-.20845-.15646-.29967-.33918-.29967Zm1.34372-2.07485c-.11722-.235-.14347-.32618-.18245-.32618-.06524,0-.07849.10449-.15673.24822l-.71761,1.33073a.98214.98214,0,0,0-.11748.24769c0,.05251.03925.0785.09149.0785h1.73515c.05224,0,.09149-.026.09149-.0785a.98214.98214,0,0,0-.11748-.24769Z" transform="translate(-3.57455 -3.4328)"/><path d="M61.12041,45.51062c0,.69161,1.00454.4959,1.00454.73086,0,.06524-.039.11722-.18245.11722-.35244,0-.75685-.052-1.16127-.052-.41767,0-.87433.052-1.26575.052-.07823,0-.13047-.03872-.13047-.104,0-.33944.78284-.02651.78284-.84808V41.53116c0-1.01728-.93931-.63911-.93931-.92605,0-.13047.10448-.16972.248-.16972.27394,0,.63937.052,1.109.052.70461,0,1.18726-.052,1.61793-.052,1.69616,0,2.17881.84808,2.17881,1.57894,0,.9653-.7436,1.213-1.27875,1.3827l1.56569,2.10084a.80893.80893,0,0,0,.74386.43067c.2217,0,.28694.026.28694.13047,0,.1432-.16946.24769-.43041.24769h-.74386a.759.759,0,0,1-.66536-.35218l-1.20026-1.70942c-.40468-.59986-.49591-.65237-.80909-.65237h-.7306Zm0-2.28329h.91332c.96556,0,1.396-.35218,1.396-1.09577,0-1.21352-1.2525-1.33073-1.73515-1.33073-.37843,0-.57414.13047-.57414.54789Z" transform="translate(-3.57455 -3.4328)"/><path d="M66.822,41.47918c0-.87407-.87407-.63911-.87407-.92657,0-.09123.07823-.11722.20871-.11722.09149,0,.20871.01326.36543.026.14347.01326.32618.026.5089.026.32618,0,.67836-.026,1.04379-.052.37817-.026.76959-.052,1.148-.052a2.91666,2.91666,0,0,1,3.14463,2.89642,3.044,3.044,0,0,1-3.23586,3.07887c-.5089,0-1.0308-.052-1.5397-.052-.58713,0-1.135.052-1.34372.052-.06524,0-.10448-.026-.10448-.06524,0-.23444.67836-.11722.67836-.93931Zm.95256,4.2404c0,.30019.37843.35217,1.096.35217,1.83963,0,2.54424-.9393,2.54424-2.4265a2.68035,2.68035,0,0,0-2.66172-2.97491c-.63937,0-.97855.06524-.97855.40416Z" transform="translate(-3.57455 -3.4328)"/><path d="M77.61236,38.24332c-.01326-.95256-1.13528-.69161-1.13528-.97855,0-.11721.10448-.1432.20871-.14373.48291,0,.95256.0525,1.43521.0525.40468,0,.80909-.0525,1.21351-.052.2217,0,.248.078.248.13047,0,.26095-.93957.01273-.93957.99128v2.81845c0,.18245,0,.235.19571.235h4.77555c.13047,0,.10422-.32618.10422-.37869V38.24332c0-.90006-.97855-.67835-.97855-.97855,0-.078.02625-.1432.222-.14373.43041,0,1.109.0525,1.357.0525.48265,0,.67836-.0525.93931-.052.33918,0,.36543.13047.36543.20844,0,.235-.87433.01326-.87433.91332v6.91511c0,.95257,1.18726.71761,1.18726,1.04379,0,.03925-.052.15647-.14347.15647-.35218,0-.75659-.052-1.22651-.052-.83482,0-1.20026.052-1.44821.052-.11748,0-.31319.03924-.31319-.1692,0-.31346.91332-.13047.91332-.95256V42.10556c0-.209.05224-.32618-.10422-.32618H78.79962c-.15673,0-.15673.078-.15673.2217v3.24859c0,.88732,1.2395.60039,1.2395,1.00507,0,.06524-.09123.104-.20871.104-.16946,0-1.122-.052-1.81364-.052a6.87818,6.87818,0,0,0-1.122.052c-.10422,0-.14347-.06524-.14347-.19571,0-.37817,1.0178.0525,1.0178-1.2395Z" transform="translate(-3.57455 -3.4328)"/><path d="M88.51992,45.3934c0,.39142.30019.5219,1.0178.5219a2.63119,2.63119,0,0,0,2.23105-.9653c.06524,0,.09123.06524.09123.1432a1.6633,1.6633,0,0,1-.53489,1.01781c-.23469.19571-.43041.24769-1.00454.24769-.48291,0-.97855-.052-1.60493-.052-.61312,0-1.29174.052-1.73514.052-.13047,0-.248-.03872-.248-.11722,0-.28694.83509,0,.83509-.82209V41.388c0-.75685-.87433-.54789-.87433-.82209,0-.09123.07823-.13047.20871-.13047.53515,0,1.37.052,2.17907.052.91332,0,2.06159-.052,2.21806-.052a.14.14,0,0,1,.13047.13047c0,.15646-.013.36543-.013,1.135,0,.15647-.05224.209-.14373.209-.10422,0-.14347-.2217-.16946-.37869-.07823-.46939-.56114-.65237-1.55269-.65237-.67836,0-1.0308,0-1.0308.37869v1.7614h1.20052c.93931,0,.70435-.75685.99155-.75685a.137.137,0,0,1,.14347.14373c0,.15646-.03925.41741-.03925.69109,0,.40468.02625.77011.02625,1.109,0,.14373-.05224.19571-.16972.19571-.248,0-.026-.90006-.92631-.90006H88.51992Z" transform="translate(-3.57455 -3.4328)"/><path d="M93.59514,41.28347c0-.69162-1.00454-.49591-1.00454-.73086,0-.06524.039-.11722.18272-.11722.35218,0,.75659.052,1.161.052.41767,0,.87433-.052,1.26575-.052.07823,0,.13047.03925.13047.10448,0,.33892-.78284.03925-.78284.6651v4.30564c0,.69161,1.01754.4959,1.01754.73086,0,.06524-.039.11722-.18245.11722-.35244,0-.75685-.052-1.16127-.052-.41767,0-.87433.052-1.26575.052-.07823,0-.13047-.03872-.13047-.104,0-.33944.76985-.03925.76985-.66563Z" transform="translate(-3.57455 -3.4328)"/><path d="M102.12819,41.68815c0-1.13554-1.17426-.80936-1.17426-1.13554,0-.078.10448-.11722.196-.11722.29993,0,.7306.052,1.09577.052.48291,0,.82209-.052,1.083-.052a.127.127,0,0,1,.14347.13047c0,.26095-.86108,0-.86108,1.0178V46.1895c0,.15646-.05224.2217-.222.2217-.10422,0-.19571-.0525-.41741-.28694L97.953,41.77938l-.07823.01273v3.53605c0,.9393,1.109.54788,1.109.9393,0,.0785-.09123.09123-.2347.09123-.36543,0-.76985-.052-1.109-.052-.35244,0-.70461.052-1.0178.052-.10448,0-.18272-.03872-.18272-.11722,0-.36544.90032,0,.90032-1.37V41.58367c0-1.04379-1.135-.7436-1.135-1.05705,0-.052.06524-.09122.20871-.09122.15646,0,.33918.052.66536.052.27394,0,.45666-.052.69162-.052a.53884.53884,0,0,1,.43041.19571l3.836,4.18842.09123-.05251Z" transform="translate(-3.57455 -3.4328)"/><path d="M109.043,40.48737c.10448,0,.16972.02651.16972.09175a1.33356,1.33356,0,0,1-.248.45666l-2.76594,4.14865c-.19571.28746-.33944.46991-.33944.58713,0,.157.07849.16972.18272.16972h.80909a3.00612,3.00612,0,0,0,2.41377-.82209.15691.15691,0,0,1,.14347.157c0,.078-.09149.19571-.39142.56062-.37842.48317-.5089.5219-.74386.5219-1.08278,0-1.65691-.052-2.244-.052-.5219,0-1.05679.052-1.57868.052-.07823,0-.13047-.01273-.13047-.11722,0-.052.039-.10449.11748-.209l2.84417-4.2404a3.25745,3.25745,0,0,0,.45666-.84808c0-.06524-.06524-.078-.2087-.078h-1.59168c-1.12228,0-.97855.96529-1.27875.96529-.06524,0-.13047-.06524-.13047-.16972,0-.11722.11748-.73034.16972-1.09577.026-.10449.11722-.13047.28694-.13047.15646,0,1.37.052,2.19206.052Z" transform="translate(-3.57455 -3.4328)"/><path d="M115.51449,40.918c0,.44393-.02625.44393.49564.44393h1.40922c1.357,0,1.00454-1.04379,1.31773-1.04379.10448,0,.14347.1432.14347.24769,0,.45666-.026.90006-.026,1.318,0,.33891.026.67836.026,1.03053,0,.11722-.05224.16972-.14347.16972-.40442,0,.03925-1.14827-1.05679-1.14827h-1.93112c-.27394,0-.2347.2217-.2347.41741v2.401c0,.76959-.10448,1.08252.99155,1.08252,3.01389,0,3.45756-1.34346,3.627-1.34346.09149,0,.10448.13047.10448.15646a2.06248,2.06248,0,0,1-.65237,1.26549c-.41741.46991-.70461.4434-1.27849.4434-.99181,0-1.98336-.078-2.97491-.052-.5219.01326-1.07.052-1.59194.052-.11722,0-.19571-.026-.19571-.13047.02625-.15647.15673-.13047.57414-.33892.33918-.15646.36543-.5219.36543-1.135V38.80447c0-.58713,0-1.21352-.70461-1.318-.10448-.026-.39142-.052-.39142-.20845,0-.10448.07823-.15646.45666-.157,2.466,0,3.14437.0525,3.69251.0525.26095,0,1.4612-.0525,1.86562-.052.10448,0,.13047.13047.13047.28694,0,1.44795-.18272,1.55243-.26095,1.55243-.31319,0-.10422-.62637-.31319-.926-.33918-.44393-1.69616-.36543-2.21806-.36543-1.2525,0-1.22625-.0525-1.22625.82209Z" transform="translate(-3.57455 -3.4328)"/><path d="M126.67,41.68815c0-1.13554-1.17426-.80936-1.17426-1.13554,0-.078.10449-.11722.196-.11722.29994,0,.7306.052,1.09577.052.48291,0,.82209-.052,1.083-.052a.127.127,0,0,1,.14347.13047c0,.26095-.86108,0-.86108,1.0178V46.1895c0,.15646-.05224.2217-.222.2217-.10422,0-.19571-.0525-.41741-.28694l-4.0187-4.34488-.07823.01273v3.53605c0,.9393,1.109.54788,1.109.9393,0,.0785-.09123.09123-.2347.09123-.36543,0-.76985-.052-1.109-.052-.35244,0-.70461.052-1.0178.052-.10449,0-.18272-.03872-.18272-.11722,0-.36544.90032,0,.90032-1.37V41.58367c0-1.04379-1.135-.7436-1.135-1.05705,0-.052.06524-.09122.20871-.09122.15646,0,.33918.052.66537.052.27394,0,.45666-.052.69161-.052a.53884.53884,0,0,1,.43041.19571l3.836,4.18842L126.67,44.767Z" transform="translate(-3.57455 -3.4328)"/><path d="M129.81411,41.47918c0-.87407-.87407-.63911-.87407-.92657,0-.09123.07823-.11722.20871-.11722.09149,0,.20871.01326.36543.026.14347.01326.32618.026.5089.026.32618,0,.67836-.026,1.04379-.052.37817-.026.76959-.052,1.148-.052a2.91641,2.91641,0,0,1,3.14437,2.89642,3.04375,3.04375,0,0,1-3.23559,3.07887c-.5089,0-1.0308-.052-1.5397-.052-.58713,0-1.135.052-1.34372.052-.06524,0-.10448-.026-.10448-.06524,0-.23444.67836-.11722.67836-.93931Zm.95256,4.2404c0,.30019.37843.35217,1.096.35217,1.83963,0,2.54424-.9393,2.54424-2.4265a2.68035,2.68035,0,0,0-2.66172-2.97491c-.63937,0-.97855.06524-.97855.40416Z" transform="translate(-3.57455 -3.4328)"/><path d="M139.48243,46.4112c-1.93086,0-3.30083-1.083-3.30083-2.89642a3.01492,3.01492,0,0,1,3.26185-3.13137c2.11357,0,3.24885,1.27823,3.24885,2.88315A3.11716,3.11716,0,0,1,139.48243,46.4112Zm-.09123-5.74085c-1.31773,0-2.17881,1.0178-2.17881,2.67471a2.3968,2.3968,0,0,0,2.34853,2.7007c1.161,0,2.10057-.83482,2.10057-2.59622C141.6615,41.6489,140.6437,40.67035,139.3912,40.67035Z" transform="translate(-3.57455 -3.4328)"/><path d="M144.03018,41.34871c-.29993-.73086-.80883-.63911-.80883-.82209,0-.052.06524-.09122.14347-.09122.26095,0,.74386.052,1.04379.052.30019,0,.58713-.052.90032-.052.06524,0,.09123.09122.09123.14373,0,.13047-.48265.11722-.48265.4434a19.69252,19.69252,0,0,0,1.27875,3.32708c.20871.49591.2347.62638.28694.62638s.06524-.06524.2217-.36543l.60039-1.26549c.14347-.30019.15646-.36543.15646-.46992a1.992,1.992,0,0,0-.235-.69161l-.39142-.87408c-.29993-.75685-.79584-.61312-.79584-.76958a.102.102,0,0,1,.10448-.10448c.31319,0,.69135.052,1.04379.052.33918,0,.71761-.052.91332-.052a.14.14,0,0,1,.15646.14373c0,.20844-.54789.026-.54789.43015a16.729,16.729,0,0,0,1.22651,3.11864c.32618.79558.33918.88733.39142.88733.039,0,.06524-.05251.20871-.37869a17.851,17.851,0,0,0,1.26549-3.36633c0-.58713-.63937-.40416-.63937-.65237,0-.09123.02625-.18245.16972-.18245.16972,0,.57414.052.87433.052.27394,0,.62611-.052.74359-.052.09123,0,.15646.03925.15646.11722,0,.235-.40442,0-.84808,1.00507l-1.7614,4.07068c-.2347.56114-.26095.78284-.40442.78284-.13047,0-.14347-.10448-.54789-1.083-.78284-1.89187-.78284-1.93112-.83508-1.93112s-.06524.026-.33918.62638c-.36543.76959-.82209,1.67017-1.0178,2.244a.18045.18045,0,0,1-.16972.14373c-.09123,0-.13047-.11774-.24769-.39142Z" transform="translate(-3.57455 -3.4328)"/><path d="M156.55567,46.137a.198.198,0,0,1-.16972.11774c-.06524,0-.11722-.03925-.16946-.157l-1.86588-3.95294h-.07823c-.013.43015-.07823,1.09577-.07823,2.76594,0,.78284.09123.96529.53489,1.14827.15646.06524.32618.052.32618.20844,0,.06524-.06524.09123-.15646.09123-.31319,0-.62638-.052-.93957-.052-.39142,0-.78284.052-1.00454.052a.09244.09244,0,0,1-.10448-.09123c0-.20844.66536-.11721.76985-.69161a36.77836,36.77836,0,0,0,.20871-3.849c0-1.14775-1.04379-.83482-1.04379-1.14775a.13638.13638,0,0,1,.14347-.14373c.235,0,.40468.052.63937.052.31319,0,.56114-.052.75685-.052.10422,0,.16946.07849.2217.18245l2.08758,4.27964h.10448l2.12657-4.10993c.07849-.1432.14373-.30019.235-.30019h.54789a4.67537,4.67537,0,0,0,.49591-.026c.13047-.01273.20871-.026.248-.026a.143.143,0,0,1,.13047.14373c0,.28694-.88733,0-.88733.97855s.10448,2.62221.10448,3.7445c0,.93931.92631.67836.92631.96529,0,.05251-.026.09123-.13047.09123-.29993,0-.75659-.052-1.20025-.052-.39142,0-.70461.052-.95256.052-.14347,0-.235-.01273-.235-.104,0-.26095.63937-.14373.63937-.84808V41.97509l-.07823.026Z" transform="translate(-3.57455 -3.4328)"/><path d="M163.31406,45.3934c0,.39142.30019.5219,1.0178.5219a2.63119,2.63119,0,0,0,2.23105-.9653c.06524,0,.09123.06524.09123.1432a1.6633,1.6633,0,0,1-.53489,1.01781c-.2347.19571-.43041.24769-1.00454.24769-.48291,0-.97855-.052-1.60493-.052-.61312,0-1.29174.052-1.73515.052-.13047,0-.248-.03872-.248-.11722,0-.28694.83508,0,.83508-.82209V41.388c0-.75685-.87433-.54789-.87433-.82209,0-.09123.07823-.13047.20871-.13047.53515,0,1.37.052,2.17907.052.91332,0,2.06159-.052,2.21806-.052a.14.14,0,0,1,.13047.13047c0,.15646-.013.36543-.013,1.135,0,.15647-.05224.209-.14373.209-.10422,0-.14347-.2217-.16946-.37869-.07823-.46939-.56114-.65237-1.55269-.65237-.67836,0-1.0308,0-1.0308.37869v1.7614h1.20052c.93931,0,.70435-.75685.99155-.75685a.137.137,0,0,1,.14347.14373c0,.15646-.03925.41741-.03925.69109,0,.40468.02625.77011.02625,1.109,0,.14373-.05224.19571-.16972.19571-.248,0-.026-.90006-.92631-.90006h-1.22651Z" transform="translate(-3.57455 -3.4328)"/><path d="M173.22981,41.68815c0-1.13554-1.17426-.80936-1.17426-1.13554,0-.078.10448-.11722.196-.11722.29993,0,.7306.052,1.09577.052.48291,0,.82209-.052,1.083-.052a.127.127,0,0,1,.14347.13047c0,.26095-.86107,0-.86107,1.0178V46.1895c0,.15646-.05225.2217-.222.2217-.10422,0-.19571-.0525-.41741-.28694l-4.0187-4.34488-.07823.01273v3.53605c0,.9393,1.109.54788,1.109.9393,0,.0785-.09122.09123-.2347.09123-.36543,0-.76984-.052-1.109-.052-.35244,0-.70461.052-1.0178.052-.10448,0-.18272-.03872-.18272-.11722,0-.36544.90032,0,.90032-1.37V41.58367c0-1.04379-1.135-.7436-1.135-1.05705,0-.052.06524-.09122.20871-.09122.15646,0,.33918.052.66536.052.27394,0,.45666-.052.69162-.052a.53884.53884,0,0,1,.43041.19571l3.836,4.18842.09123-.05251Z" transform="translate(-3.57455 -3.4328)"/><path d="M177.87436,41.45319c0-.28694-.11722-.48265-.39142-.48265h-1.05679c-.92631,0-.69135,1.161-1.0308,1.161a.13811.13811,0,0,1-.15646-.15646c0-.10448.2217-1.12229.2217-1.40922,0-.07849.07849-.10449.16972-.10449.235,0,.91332.0785,1.69616.0785h1.73541c.33918,0,.7306-.01326,1.109-.026.36517-.01326.70435-.05251.90006-.05251.11748,0,.16972.03925.16972.15647,0,.11774.14347,1.0703.14347,1.16153s-.039.14321-.16946.14321c-.235,0-.18272-.952-1.0308-.952h-.96556c-.31319,0-.39142.104-.39142.36491v4.006c0,.87407,1.096.53463,1.096.8868,0,.09175-.06524.13047-.26095.13047-.37843,0-.74386-.052-1.2525-.052-.61338,0-.95256.052-1.38323.052-.10422,0-.15646-.052-.15646-.13047,0-.31293,1.00454,0,1.00454-.83482Z" transform="translate(-3.57455 -3.4328)"/><path d="M190.45643,41.86554a1.26293,1.26293,0,1,1-1.26293,1.26293A1.26459,1.26459,0,0,1,190.45643,41.86554Z" transform="translate(-3.57455 -3.4328)"/><path d="M199.64669,38.12611c-.32618-.78284-1.00454-.53516-1.00454-.82209a.16557.16557,0,0,1,.18245-.183c.40468,0,.80936.0525,1.20078.0525.35165,0,.84808-.0525,1.03053-.052.07849,0,.18245.052.18245.13047.01326.18245-.53515.19571-.53515.6651a1.38735,1.38735,0,0,0,.11774.50917l2.28329,5.37542c.28694.69162.37869.99129.5219.99129.13047,0,.16972-.20845.235-.36491l2.27-5.59765a1.92181,1.92181,0,0,0,.18245-.88732c0-.59987-.83482-.35218-.83482-.65237,0-.13047.06524-.1692.19571-.16972.28746,0,.57388.0525.86134.0525.62586,0,.82157-.0525,1.00454-.052.14321,0,.2217.052.2217.1692,0,.28746-.36491-.03872-.73086.83535l-3.24859,7.6847c-.14373.32618-.23444.75686-.43015.75686-.209,0-.366-.54789-.48317-.82209Z" transform="translate(-3.57455 -3.4328)"/><path d="M208.68863,41.28347c0-.69162-1.00507-.49591-1.00507-.73086,0-.06524.03925-.11722.183-.11722.35217,0,.75685.052,1.161.052.41741,0,.87407-.052,1.26549-.052.07849,0,.13047.03925.13047.10448,0,.33892-.78284.03925-.78284.6651v4.30564c0,.69161,1.0178.4959,1.0178.73086,0,.06524-.03925.11722-.18245.11722-.35217,0-.75685-.052-1.16153-.052-.41741,0-.87407.052-1.26549.052-.078,0-.13047-.03872-.13047-.104,0-.33944.77011-.03925.77011-.66563Z" transform="translate(-3.57455 -3.4328)"/><path d="M213.21749,45.51062c0,.69161,1.00454.4959,1.00454.73086,0,.06524-.03925.11722-.18245.11722-.35218,0-.75686-.052-1.16154-.052-.41741,0-.87407.052-1.26549.052-.078,0-.13047-.03872-.13047-.104,0-.33944.78284-.02651.78284-.84808V41.53116c0-1.01728-.93931-.63911-.93931-.92605,0-.13047.10449-.16972.24769-.16972.2742,0,.63964.052,1.109.052.70488,0,1.18752-.052,1.61819-.052,1.69616,0,2.1788.84808,2.1788,1.57894,0,.9653-.74359,1.213-1.27875,1.3827l1.56569,2.10084a.80882.80882,0,0,0,.7436.43067c.22222,0,.28746.026.28746.13047,0,.1432-.16972.24769-.43066.24769h-.7436a.75913.75913,0,0,1-.66563-.35218l-1.20025-1.70942c-.40468-.59986-.49591-.65237-.80884-.65237h-.73086Zm0-2.28329h.91332c.9653,0,1.396-.35218,1.396-1.09577,0-1.21352-1.25224-1.33073-1.73541-1.33073-.37817,0-.57388.13047-.57388.54789Z" transform="translate(-3.57455 -3.4328)"/><path d="M219.8584,44.23239c-.1432,0-.23444.09123-.33891.28694-.36544.69162-.43067.88733-.43067,1.0178,0,.32618.2742.49538.69162.53463.2217.01326.32618.03925.32618.15647,0,.07849-.05251.13047-.183.13047-.27368,0-.63911-.052-1.09577-.052-.36543,0-.86134.052-1.057.052-.078,0-.11722-.01273-.11722-.09123,0-.18245.5219-.11721.95257-.97855,1.2395-2.479,2.244-4.10993,2.54424-4.63182.10448-.18245.15646-.27368.2217-.27368.09123,0,.10449.09123.15646.19571.62638,1.2395,1.61819,3.52279,2.19207,4.87951.2742.65237,1.04379.54788,1.04379.75685,0,.10448-.10448.14321-.31293.14321-.24769,0-.63911-.052-.99181-.052-.43015,0-.8868.052-1.29148.052-.10448,0-.14373-.03872-.14373-.13047,0-.24769.67836-.09123.67836-.69109,0-.16972-.06524-.3527-.39142-1.00507-.10448-.20845-.15646-.29967-.33892-.29967Zm1.344-2.07485c-.11721-.235-.14321-.32618-.18245-.32618-.06524,0-.0785.10449-.15647.24822l-.71761,1.33073a.976.976,0,0,0-.11774.24769c0,.05251.03925.0785.09123.0785h1.73541c.0525,0,.09123-.026.09123-.0785a.98842.98842,0,0,0-.11722-.24769Z" transform="translate(-3.57455 -3.4328)"/><path d="M229.83965,38.24332c-.01325-.95256-1.057-.69161-1.057-.97855,0-.11721.02651-.1432.13047-.14373.48317,0,.95308.0525,1.43521.0525.40467,0,.80935-.0525,1.214-.052.20845,0,.24769.026.24769.13047,0,.31293-.93982.01273-.93982.99128v7.00635c0,.88732,1.16153.58713,1.16153.97855,0,.09175-.03925.13047-.26095.13047-.30019,0-.86081-.052-1.42247-.052-.79558,0-1.06926.052-1.25224.052-.235,0-.27368-.06524-.27368-.19571,0-.37817,1.01728.0525,1.01728-1.2395Z" transform="translate(-3.57455 -3.4328)"/><path d="M233.87108,45.06721c.2742-.31293.235-.43067.40467-.43067.18246,0,.13047.11774.41741.43067.24821.2742.41742.235.41742.40468,0,.1692-.1692.15646-.41742.4434-.28694.26095-.235.39142-.41741.39142-.16972,0-.13047-.13047-.40467-.39142-.26095-.28694-.43015-.2742-.43015-.4434C233.44093,45.30217,233.61014,45.34142,233.87108,45.06721Z" transform="translate(-3.57455 -3.4328)"/><path d="M240.77346,38.24332c-.01326-.95256-1.135-.69161-1.135-.97855,0-.11721.104-.1432.20844-.14373.48265,0,.95256.0525,1.43521.0525.40468,0,.80884-.0525,1.21351-.052.2217,0,.2477.078.2477.13047,0,.26095-.93931.01273-.93931.99128v2.81845c0,.18245,0,.235.19571.235h4.77555c.13047,0,.10448-.32618.10448-.37869V38.24332c0-.90006-.97855-.67835-.97855-.97855,0-.078.026-.1432.2217-.14373.43067,0,1.109.0525,1.35724.0525.48213,0,.67784-.0525.93879-.052.33944,0,.36595.13047.36595.20844,0,.235-.87459.01326-.87459.91332v6.91511c0,.95257,1.18752.71761,1.18752,1.04379,0,.03925-.052.15647-.14373.15647-.35218,0-.75633-.052-1.22625-.052-.83482,0-1.20077.052-1.44847.052-.11722,0-.31293.03924-.31293-.1692,0-.31346.91332-.13047.91332-.95256V42.10556c0-.209.052-.32618-.10448-.32618h-4.81479c-.15647,0-.15647.078-.15647.2217v3.24859c0,.88732,1.2395.60039,1.2395,1.00507,0,.06524-.09123.104-.20844.104-.16972,0-1.12228-.052-1.8139-.052a6.87179,6.87179,0,0,0-1.12176.052c-.10448,0-.14373-.06524-.14373-.19571,0-.37817,1.0178.0525,1.0178-1.2395Z" transform="translate(-3.57455 -3.4328)"/><path d="M251.68076,45.3934c0,.39142.30071.5219,1.01832.5219a2.631,2.631,0,0,0,2.23079-.9653c.06524,0,.09123.06524.09123.1432A1.6626,1.6626,0,0,1,254.486,46.111c-.23444.19571-.43015.24769-1.004.24769-.48317,0-.97855-.052-1.60545-.052-.61261,0-1.29149.052-1.73489.052-.13047,0-.24769-.03872-.24769-.11722,0-.28694.83482,0,.83482-.82209V41.388c0-.75685-.87459-.54789-.87459-.82209,0-.09123.07849-.13047.209-.13047.53515,0,1.37.052,2.17933.052.91332,0,2.06107-.052,2.21806-.052a.14022.14022,0,0,1,.13047.13047c0,.15646-.01326.36543-.01326,1.135,0,.15647-.052.209-.14373.209-.104,0-.14372-.2217-.1692-.37869-.07849-.46939-.56166-.65237-1.553-.65237-.67836,0-1.03105,0-1.03105.37869v1.7614h1.20077c.93931,0,.70435-.75685.99181-.75685a.137.137,0,0,1,.14321.14373c0,.15646-.03925.41741-.03925.69109,0,.40468.02651.77011.02651,1.109,0,.14373-.0525.19571-.17024.19571-.2477,0-.02547-.90006-.92606-.90006h-1.22676Z" transform="translate(-3.57455 -3.4328)"/><path d="M256.756,41.28347c0-.69162-1.004-.49591-1.004-.73086,0-.06524.03873-.11722.18245-.11722.35217,0,.75633.052,1.161.052.41793,0,.87459-.052,1.266-.052.078,0,.13047.03925.13047.10448,0,.33892-.78284.03925-.78284.6651v4.30564c0,.69161,1.01728.4959,1.01728.73086,0,.06524-.03873.11722-.18246.11722-.3527,0-.75685-.052-1.161-.052-.41793,0-.87459.052-1.266.052-.0785,0-.13047-.03872-.13047-.104,0-.33944.76958-.03925.76958-.66563Z" transform="translate(-3.57455 -3.4328)"/><path d="M265.28929,41.68815c0-1.13554-1.17426-.80936-1.17426-1.13554,0-.078.10448-.11722.19623-.11722.29967,0,.73034.052,1.09577.052.48265,0,.82157-.052,1.08252-.052a.127.127,0,0,1,.14372.13047c0,.26095-.86133,0-.86133,1.0178V46.1895c0,.15646-.052.2217-.22171.2217-.10448,0-.19571-.0525-.41741-.28694l-4.0187-4.34488-.078.01273v3.53605c0,.9393,1.109.54788,1.109.9393,0,.0785-.09174.09123-.235.09123-.36543,0-.7701-.052-1.109-.052-.35218,0-.70487.052-1.0178.052-.10448,0-.18245-.03872-.18245-.11722,0-.36544.90006,0,.90006-1.37V41.58367c0-1.04379-1.135-.7436-1.135-1.05705,0-.052.06524-.09122.20845-.09122.157,0,.33943.052.66562.052.2742,0,.45666-.052.69162-.052a.53972.53972,0,0,1,.43067.19571l3.83572,4.18842.09123-.05251Z" transform="translate(-3.57455 -3.4328)"/><path d="M272.20393,40.48737c.105,0,.17019.02651.17019.09175a1.33559,1.33559,0,0,1-.24821.45666L269.36,45.18443c-.19571.28746-.33945.46991-.33945.58713,0,.157.0785.16972.18251.16972h.80931a3.00666,3.00666,0,0,0,2.41377-.82209.15693.15693,0,0,1,.14372.157c0,.078-.09175.19571-.39142.56062-.37869.48317-.50916.5219-.74412.5219-1.08252,0-1.65691-.052-2.244-.052-.5219,0-1.05653.052-1.57842.052-.07849,0-.13047-.01273-.13047-.11722,0-.052.03872-.10449.11722-.209l2.844-4.2404a3.25745,3.25745,0,0,0,.45666-.84808c0-.06524-.06524-.078-.2085-.078H269.099c-1.12229,0-.97855.96529-1.27875.96529-.06524,0-.13047-.06524-.13047-.16972,0-.11722.11774-.73034.16973-1.09577.026-.10449.11721-.13047.28693-.13047.15646,0,1.37.052,2.19207.052Z" transform="translate(-3.57455 -3.4328)"/><path d="M278.67559,40.918c0,.44393-.02646.44393.49544.44393h1.4097c1.35671,0,1.00407-1.04379,1.31747-1.04379.10448,0,.14326.1432.14326.24769,0,.45666-.02551.90006-.02551,1.318,0,.33891.02551.67836.02551,1.03053,0,.11722-.052.16972-.14326.16972-.40415,0,.03925-1.14827-1.05652-1.14827h-1.93159c-.27373,0-.23449.2217-.23449.41741v2.401c0,.76959-.10448,1.08252.99182,1.08252,3.01363,0,3.45756-1.34346,3.6268-1.34346.0917,0,.10443.13047.10443.15646a2.06112,2.06112,0,0,1-.65237,1.26549c-.41741.46991-.70482.4434-1.2787.4434-.99181,0-1.98315-.078-2.97443-.052-.5219.01326-1.07026.052-1.59215.052-.11727,0-.19571-.026-.19571-.13047.02647-.15647.15694-.13047.57388-.33892.33944-.15646.36591-.5219.36591-1.135V38.80447c0-.58713,0-1.21352-.70488-1.318-.10443-.026-.39142-.052-.39142-.20845,0-.10448.078-.15646.45666-.157,2.46628,0,3.14416.0525,3.69251.0525.26095,0,1.4612-.0525,1.86541-.052.105,0,.13047.13047.13047.28694,0,1.44795-.18245,1.55243-.26095,1.55243-.31293,0-.104-.62637-.31293-.926-.33944-.44393-1.69616-.36543-2.21806-.36543-1.25276,0-1.2263-.0525-1.2263.82209Z" transform="translate(-3.57455 -3.4328)"/><path d="M289.8311,41.68815c0-1.13554-1.17426-.80936-1.17426-1.13554,0-.078.10448-.11722.19571-.11722.30019,0,.73087.052,1.09582.052.48313,0,.82256-.052,1.08351-.052a.12686.12686,0,0,1,.14321.13047c0,.26095-.86081,0-.86081,1.0178V46.1895c0,.15646-.0525.2217-.22222.2217-.104,0-.19571-.0525-.41741-.28694l-4.0187-4.34488-.07844.01273v3.53605c0,.9393,1.109.54788,1.109.9393,0,.0785-.09076.09123-.23448.09123-.36544,0-.76959-.052-1.109-.052-.35265,0-.70436.052-1.01781.052-.10448,0-.18292-.03872-.18292-.11722,0-.36544.90053,0,.90053-1.37V41.58367c0-1.04379-1.135-.7436-1.135-1.05705,0-.052.06524-.09122.209-.09122.156,0,.33892.052.6651.052.27373,0,.45666-.052.69162-.052a.53814.53814,0,0,1,.43019.19571l3.83619,4.18842.09123-.05251Z" transform="translate(-3.57455 -3.4328)"/><path d="M292.97526,41.47918c0-.87407-.87407-.63911-.87407-.92657,0-.09123.07844-.11722.20891-.11722.09123,0,.2085.01326.365.026.14373.01326.32618.026.50911.026.32618,0,.67841-.026,1.04379-.052.37822-.026.76964-.052,1.14827-.052a2.91621,2.91621,0,0,1,3.14416,2.89642,3.044,3.044,0,0,1-3.23586,3.07887c-.50864,0-1.03053-.052-1.53923-.052-.58713,0-1.13549.052-1.344.052-.06524,0-.10443-.026-.10443-.06524,0-.23444.67836-.11722.67836-.93931Zm.95256,4.2404c0,.30019.37817.35217,1.09577.35217,1.83989,0,2.54424-.9393,2.54424-2.4265a2.6803,2.6803,0,0,0-2.66146-2.97491c-.63917,0-.97855.06524-.97855.40416Z" transform="translate(-3.57455 -3.4328)"/><path d="M302.64353,46.4112c-1.93107,0-3.301-1.083-3.301-2.89642a3.015,3.015,0,0,1,3.26185-3.13137c2.114,0,3.24906,1.27823,3.24906,2.88315A3.11728,3.11728,0,0,1,302.64353,46.4112Zm-.09123-5.74085c-1.31794,0-2.17881,1.0178-2.17881,2.67471a2.3968,2.3968,0,0,0,2.34853,2.7007c1.161,0,2.10037-.83482,2.10037-2.59622C304.82239,41.6489,303.80507,40.67035,302.55231,40.67035Z" transform="translate(-3.57455 -3.4328)"/><path d="M307.18517,41.34871c-.29967-.73086-.80883-.63911-.80883-.82209,0-.052.06524-.09122.14321-.09122.26095,0,.74413.052,1.04379.052.30072,0,.58713-.052.90058-.052.06524,0,.09123.09122.09123.14373,0,.13047-.48265.11722-.48265.4434a19.6603,19.6603,0,0,0,1.27876,3.32708c.209.49591.23443.62638.28693.62638s.06524-.06524.2217-.36543l.6004-1.26549c.14372-.30019.15646-.36543.15646-.46992a1.992,1.992,0,0,0-.235-.69161l-.39142-.87408c-.29967-.75685-.7961-.61312-.7961-.76958a.10231.10231,0,0,1,.105-.10448c.31294,0,.69109.052,1.04379.052.33892,0,.71761-.052.91332-.052a.13976.13976,0,0,1,.15594.14373c0,.20844-.54736.026-.54736.43015a16.67439,16.67439,0,0,0,1.22625,3.11864c.32618.79558.33943.88733.39142.88733.03872,0,.06524-.05251.209-.37869a17.877,17.877,0,0,0,1.265-3.36633c0-.58713-.63911-.40416-.63911-.65237,0-.09123.02651-.18245.16972-.18245.16973,0,.5744.052.87407.052.27421,0,.62638-.052.74412-.052.09071,0,.15594.03925.15594.11722,0,.235-.40416,0-.84808,1.00507l-1.7614,4.07068c-.23443.56114-.26095.78284-.40416.78284-.13047,0-.14321-.10448-.54788-1.083-.78284-1.89187-.78284-1.93112-.83483-1.93112-.0525,0-.06524.026-.33943.62638-.36544.76959-.8221,1.67017-1.01781,2.244a.18021.18021,0,0,1-.16972.14373c-.09123,0-.13047-.11774-.24768-.39142Z" transform="translate(-3.57455 -3.4328)"/><path d="M319.71066,46.137a.19741.19741,0,0,1-.16972.11774c-.06524,0-.11722-.03925-.16972-.157l-1.86535-3.95294h-.0785c-.01326.43015-.07849,1.09577-.07849,2.76594,0,.78284.09176.96529.53515,1.14827.15646.06524.32618.052.32618.20844,0,.06524-.06524.09123-.15646.09123-.31345,0-.62638-.052-.9393-.052-.39142,0-.78284.052-1.00507.052a.09213.09213,0,0,1-.104-.09123c0-.20844.6651-.11721.76958-.69161a36.84418,36.84418,0,0,0,.209-3.849c0-1.14775-1.04379-.83482-1.04379-1.14775a.136.136,0,0,1,.1432-.14373c.235,0,.40468.052.63964.052.31292,0,.56061-.052.75632-.052.10448,0,.16972.07849.22223.18245l2.08758,4.27964h.104l2.12683-4.10993c.07849-.1432.14373-.30019.235-.30019h.54789a4.67537,4.67537,0,0,0,.4959-.026c.13047-.01273.209-.026.24769-.026a.143.143,0,0,1,.13047.14373c0,.28694-.8868,0-.8868.97855s.104,2.62221.104,3.7445c0,.93931.92657.67836.92657.96529,0,.05251-.026.09123-.13047.09123-.29967,0-.75633-.052-1.20026-.052-.39142,0-.70487.052-.95256.052-.14373,0-.235-.01273-.235-.104,0-.26095.63964-.14373.63964-.84808V41.97509l-.0785.026Z" transform="translate(-3.57455 -3.4328)"/><path d="M326.46879,45.3934c0,.39142.30072.5219,1.01833.5219a2.63094,2.63094,0,0,0,2.23078-.9653c.06524,0,.09123.06524.09123.1432A1.66259,1.66259,0,0,1,329.274,46.111c-.23444.19571-.43015.24769-1.004.24769-.48318,0-.97855-.052-1.60546-.052-.61259,0-1.29148.052-1.73488.052-.13047,0-.24768-.03872-.24768-.11722,0-.28694.83482,0,.83482-.82209V41.388c0-.75685-.87459-.54789-.87459-.82209,0-.09123.07849-.13047.209-.13047.53515,0,1.37.052,2.17934.052.91332,0,2.06106-.052,2.21806-.052a.14022.14022,0,0,1,.13047.13047c0,.15646-.01326.36543-.01326,1.135,0,.15647-.052.209-.14373.209-.104,0-.14373-.2217-.16919-.37869-.0785-.46939-.56167-.65237-1.553-.65237-.67836,0-1.03106,0-1.03106.37869v1.7614h1.20078c.93931,0,.70435-.75685.99182-.75685a.137.137,0,0,1,.1432.14373c0,.15646-.03925.41741-.03925.69109,0,.40468.02652.77011.02652,1.109,0,.14373-.05251.19571-.17025.19571-.24769,0-.02546-.90006-.92605-.90006h-1.22677Z" transform="translate(-3.57455 -3.4328)"/><path d="M336.3848,41.68815c0-1.13554-1.17426-.80936-1.17426-1.13554,0-.078.10449-.11722.19571-.11722.3002,0,.73086.052,1.09577.052.48317,0,.82261-.052,1.08356-.052a.12687.12687,0,0,1,.14322.13047c0,.26095-.86082,0-.86082,1.0178V46.1895c0,.15646-.05249.2217-.22222.2217-.104,0-.19571-.0525-.4174-.28694l-4.01871-4.34488-.07849.01273v3.53605c0,.9393,1.109.54788,1.109.9393,0,.0785-.09071.09123-.23444.09123-.36542,0-.76959-.052-1.109-.052-.3527,0-.70435.052-1.01779.052-.10449,0-.183-.03872-.183-.11722,0-.36544.90059,0,.90059-1.37V41.58367c0-1.04379-1.135-.7436-1.135-1.05705,0-.052.06524-.09122.209-.09122.15594,0,.33893.052.66511.052.27367,0,.45666-.052.69161-.052a.538.538,0,0,1,.43015.19571l3.83625,4.18842.09122-.05251Z" transform="translate(-3.57455 -3.4328)"/><path d="M341.02936,41.45319c0-.28694-.11722-.48265-.39142-.48265h-1.05653c-.92657,0-.69162,1.161-1.03106,1.161a.13811.13811,0,0,1-.15646-.15646c0-.10448.2217-1.12229.2217-1.40922,0-.07849.07849-.10449.16972-.10449.235,0,.91332.0785,1.69616.0785h1.73541c.33893,0,.73035-.01326,1.109-.026.36543-.01326.70435-.05251.90006-.05251.11774,0,.16972.03925.16972.15647,0,.11774.14373,1.0703.14373,1.16153s-.03925.14321-.16972.14321c-.235,0-.183-.952-1.031-.952h-.96531c-.31293,0-.39142.104-.39142.36491v4.006c0,.87407,1.09578.53463,1.09578.8868,0,.09175-.06524.13047-.26095.13047-.37817,0-.7436-.052-1.25224-.052-.61312,0-.95256.052-1.38323.052-.10448,0-.15646-.052-.15646-.13047,0-.31293,1.00454,0,1.00454-.83482Z" transform="translate(-3.57455 -3.4328)"/></svg>